<svg width="707" height="705" xmlns="http://www.w3.org/2000/svg" xmlns:xlink="http://www.w3.org/1999/xlink" overflow="hidden"><g transform="translate(-286 -7)"><rect x="287" y="31" width="41" height="661" fill="#0074D9"/><rect x="951" y="31" width="41" height="661" fill="#0074D9"/><path d="M287 28.5C287 17.1782 296.178 8 307.5 8 318.822 8 328 17.1782 328 28.5 328 39.8218 318.822 49 307.5 49 296.178 49 287 39.8218 287 28.5Z" fill="#0074D9" fill-rule="evenodd"/><path d="M951 27.5C951 16.1782 960.178 7 971.5 7 982.822 7 992 16.1782 992 27.5 992 38.8218 982.822 48 971.5 48 960.178 48 951 38.8218 951 27.5Z" fill="#0074D9" fill-rule="evenodd"/><path d="M287 688.611C287 678.885 294.885 671 304.611 671L974.389 671C984.115 671 992 678.885 992 688.611L992 694.389C992 704.115 984.115 712 974.389 712L304.611 712C294.885 712 287 704.115 287 694.389Z" fill="#0074D9" fill-rule="evenodd"/><path d="M444 360C444 253.409 531.752 167 640 167 748.248 167 836 253.409 836 360 836 466.591 748.248 553 640 553 531.752 553 444 466.591 444 360ZM483.418 360C483.418 444.821 553.522 513.582 640 513.582 726.478 513.582 796.582 444.821 796.582 360 796.582 275.179 726.478 206.418 640 206.418 553.522 206.418 483.418 275.179 483.418 360Z" fill="#0074D9" fill-rule="evenodd"/></g></svg>